<mxfile host="Electron" agent="Mozilla/5.0 (Windows NT 10.0; Win64; x64) AppleWebKit/537.36 (KHTML, like Gecko) draw.io/28.2.5 Chrome/138.0.7204.251 Electron/37.6.1 Safari/537.36" version="28.2.5">
  <diagram id="dwGzLRa0kQV30vsb-GkC" name="Page-1">
    <mxGraphModel dx="906" dy="544" grid="1" gridSize="10" guides="1" tooltips="1" connect="1" arrows="1" fold="1" page="1" pageScale="1" pageWidth="1100" pageHeight="850" math="0" shadow="0">
      <root>
        <mxCell id="0" />
        <mxCell id="1" parent="0" />
        <mxCell id="MV27QSU4TuRPfbySpg7p-1" value="" style="rounded=1;whiteSpace=wrap;html=1;fillColor=#99FF99;strokeColor=#36393d;" parent="1" vertex="1">
          <mxGeometry x="370" y="310" width="300" height="170" as="geometry" />
        </mxCell>
        <mxCell id="MV27QSU4TuRPfbySpg7p-8" value="&lt;font style=&quot;font-size: 18px;&quot;&gt;Слој корисничког интерфејса&lt;/font&gt;" style="text;html=1;align=left;verticalAlign=middle;whiteSpace=wrap;rounded=0;" parent="1" vertex="1">
          <mxGeometry x="390" y="320" width="260" height="30" as="geometry" />
        </mxCell>
        <mxCell id="MV27QSU4TuRPfbySpg7p-9" value="" style="endArrow=classic;html=1;rounded=0;exitX=0.5;exitY=1;exitDx=0;exitDy=0;entryX=0.5;entryY=0;entryDx=0;entryDy=0;strokeWidth=2;" parent="1" source="S9O-TiMRYrS471tDZmMn-2" edge="1">
          <mxGeometry width="50" height="50" relative="1" as="geometry">
            <mxPoint x="532.5" y="389.9999999999999" as="sourcePoint" />
            <mxPoint x="520" y="419.9999999999999" as="targetPoint" />
          </mxGeometry>
        </mxCell>
        <mxCell id="MV27QSU4TuRPfbySpg7p-10" value="" style="rounded=1;whiteSpace=wrap;html=1;fillColor=#000033;strokeColor=#36393d;" parent="1" vertex="1">
          <mxGeometry x="370" y="520" width="300" height="170" as="geometry" />
        </mxCell>
        <mxCell id="MV27QSU4TuRPfbySpg7p-12" value="&lt;font style=&quot;font-size: 14px;&quot;&gt;класе за рад са изворима података&lt;/font&gt;" style="rounded=1;whiteSpace=wrap;html=1;fillColor=#dae8fc;strokeColor=#6c8ebf;" parent="1" vertex="1">
          <mxGeometry x="397.5" y="630" width="245" height="30" as="geometry" />
        </mxCell>
        <mxCell id="MV27QSU4TuRPfbySpg7p-13" value="&lt;font style=&quot;color: rgb(255, 255, 255); font-size: 18px;&quot;&gt;Слој података&lt;/font&gt;" style="text;html=1;align=left;verticalAlign=middle;whiteSpace=wrap;rounded=0;" parent="1" vertex="1">
          <mxGeometry x="390" y="530" width="130" height="30" as="geometry" />
        </mxCell>
        <mxCell id="MV27QSU4TuRPfbySpg7p-14" value="" style="endArrow=classic;html=1;rounded=0;exitX=0.5;exitY=1;exitDx=0;exitDy=0;entryX=0.5;entryY=0;entryDx=0;entryDy=0;strokeWidth=2;strokeColor=#FFFFFF;" parent="1" target="MV27QSU4TuRPfbySpg7p-12" edge="1">
          <mxGeometry width="50" height="50" relative="1" as="geometry">
            <mxPoint x="520" y="600" as="sourcePoint" />
            <mxPoint x="600" y="590" as="targetPoint" />
          </mxGeometry>
        </mxCell>
        <mxCell id="MV27QSU4TuRPfbySpg7p-15" value="" style="endArrow=none;html=1;rounded=0;entryX=0.5;entryY=1;entryDx=0;entryDy=0;exitX=0.5;exitY=0;exitDx=0;exitDy=0;strokeWidth=2;" parent="1" source="MV27QSU4TuRPfbySpg7p-10" edge="1">
          <mxGeometry width="50" height="50" relative="1" as="geometry">
            <mxPoint x="510" y="540" as="sourcePoint" />
            <mxPoint x="520" y="449.9999999999999" as="targetPoint" />
          </mxGeometry>
        </mxCell>
        <mxCell id="MV27QSU4TuRPfbySpg7p-16" value="" style="endArrow=classic;html=1;rounded=0;exitX=0.5;exitY=0;exitDx=0;exitDy=0;entryX=0.5;entryY=0;entryDx=0;entryDy=0;strokeWidth=2;strokeColor=#FFFFFF;" parent="1" source="MV27QSU4TuRPfbySpg7p-10" edge="1">
          <mxGeometry width="50" height="50" relative="1" as="geometry">
            <mxPoint x="510" y="540" as="sourcePoint" />
            <mxPoint x="520" y="570" as="targetPoint" />
          </mxGeometry>
        </mxCell>
        <mxCell id="S9O-TiMRYrS471tDZmMn-1" value="&lt;font style=&quot;font-size: 14px;&quot;&gt;класе репозиторијума&lt;/font&gt;" style="rounded=1;whiteSpace=wrap;html=1;fillColor=#fff2cc;strokeColor=#d6b656;" vertex="1" parent="1">
          <mxGeometry x="397.5" y="570" width="245" height="30" as="geometry" />
        </mxCell>
        <mxCell id="S9O-TiMRYrS471tDZmMn-2" value="&lt;span style=&quot;font-size: 14px;&quot;&gt;елементи корисничког интерфејса&lt;/span&gt;" style="rounded=1;whiteSpace=wrap;html=1;fillColor=#fff2cc;strokeColor=#d6b656;" vertex="1" parent="1">
          <mxGeometry x="397.5" y="360" width="245" height="30" as="geometry" />
        </mxCell>
        <mxCell id="S9O-TiMRYrS471tDZmMn-3" value="&lt;font style=&quot;font-size: 14px;&quot;&gt;класе чувара стања&lt;/font&gt;" style="rounded=1;whiteSpace=wrap;html=1;fillColor=#dae8fc;strokeColor=#6c8ebf;" vertex="1" parent="1">
          <mxGeometry x="397.5" y="420" width="245" height="30" as="geometry" />
        </mxCell>
      </root>
    </mxGraphModel>
  </diagram>
</mxfile>
